<svg width="80" height="80" viewBox="0 0 80 80" fill="none" xmlns="http://www.w3.org/2000/svg">
<rect width="80" height="80" rx="40" fill="white"/>
<g clip-path="url(#clip0_167_690)">
<path d="M31.4058 38.4376C31.4058 36.7379 31.9098 35.0764 32.8541 33.6632C33.7984 32.2499 35.1405 31.1485 36.7108 30.498C38.2811 29.8476 40.009 29.6774 41.6761 30.009C43.3431 30.3406 44.8744 31.1591 46.0762 32.3609C47.2781 33.5628 48.0965 35.094 48.4281 36.761C48.7597 38.4281 48.5895 40.156 47.9391 41.7263C47.2887 43.2966 46.1872 44.6388 44.7739 45.583C43.3607 46.5273 41.6992 47.0314 39.9995 47.0314C37.7203 47.0314 35.5345 46.1259 33.9228 44.5143C32.3112 42.9027 31.4058 40.7168 31.4058 38.4376ZM56.0464 49.6056C55.6983 49.4035 55.2869 49.3397 54.894 49.4269C54.501 49.5141 54.1552 49.7459 53.9253 50.0763C53.5886 50.5401 53.2288 50.9866 52.8472 51.4142C51.7104 49.7642 50.2661 48.349 48.5933 47.2462C48.4506 47.1516 48.2808 47.1065 48.1101 47.1178C47.9393 47.1291 47.7769 47.1962 47.6479 47.3087C45.5254 49.1454 42.8123 50.1563 40.0054 50.1563C37.1984 50.1563 34.4854 49.1454 32.3628 47.3087C32.2329 47.1934 32.0683 47.1246 31.895 47.1133C31.7217 47.102 31.5495 47.1488 31.4058 47.2462C29.7326 48.3469 28.2876 49.7601 27.1499 51.4083C24.7098 48.6683 23.2144 45.2168 22.8843 41.5626H25.8921C26.145 41.5666 26.3953 41.5106 26.6224 41.3993C26.8495 41.2879 27.047 41.1244 27.1987 40.922C27.4189 40.621 27.5242 40.2512 27.4955 39.8794C27.4668 39.5076 27.3062 39.1583 27.0425 38.8946L22.355 34.2071C22.2099 34.0619 22.0375 33.9466 21.8479 33.868C21.6582 33.7894 21.4548 33.7489 21.2495 33.7489C21.0442 33.7489 20.8409 33.7894 20.6512 33.868C20.4615 33.9466 20.2892 34.0619 20.144 34.2071L15.4565 38.8946C15.1929 39.1583 15.0322 39.5076 15.0035 39.8794C14.9749 40.2512 15.0801 40.621 15.3003 40.922C15.452 41.1244 15.6495 41.2879 15.8766 41.3993C16.1038 41.5106 16.354 41.5666 16.6069 41.5626H19.7456C20.0652 45.7167 21.6544 49.6721 24.2979 52.8924C26.9414 56.1128 30.5112 58.4424 34.5234 59.5654C38.5356 60.6883 42.796 60.5504 46.7272 59.1702C50.6583 57.79 54.0699 55.2344 56.4995 51.8497C56.6249 51.6752 56.7129 51.4767 56.7581 51.2667C56.8032 51.0566 56.8046 50.8395 56.7621 50.6289C56.7196 50.4183 56.634 50.2187 56.5109 50.0426C56.3878 49.8666 56.2296 49.7178 56.0464 49.6056ZM64.8804 39.4025C64.7622 39.1169 64.5619 38.8729 64.305 38.7011C64.0481 38.5294 63.746 38.4377 63.437 38.4376H60.2534C59.9338 34.2835 58.3446 30.3281 55.7011 27.1078C53.0577 23.8874 49.4878 21.5578 45.4756 20.4348C41.4635 19.3119 37.203 19.4498 33.2719 20.83C29.3407 22.2102 25.9291 24.7659 23.4995 28.1505C23.2576 28.4872 23.1594 28.9062 23.2264 29.3153C23.2934 29.7245 23.5202 30.0902 23.8569 30.3321C24.1936 30.574 24.6126 30.6723 25.0218 30.6053C25.4309 30.5382 25.7967 30.3114 26.0386 29.9747C28.0827 27.1287 30.9478 24.9755 34.25 23.8035C37.5522 22.6316 41.1338 22.4969 44.5147 23.4176C47.8956 24.3383 50.9143 26.2704 53.1663 28.9549C55.4183 31.6394 56.796 34.9481 57.1147 38.4376H54.062C53.7528 38.4374 53.4505 38.5289 53.1933 38.7005C52.9361 38.8722 52.7357 39.1163 52.6173 39.402C52.4989 39.6877 52.468 40.002 52.5284 40.3053C52.5888 40.6085 52.7378 40.8871 52.9565 41.1056L57.644 45.7931C57.7892 45.9384 57.9615 46.0536 58.1512 46.1322C58.3409 46.2109 58.5442 46.2513 58.7495 46.2513C58.9548 46.2513 59.1582 46.2109 59.3479 46.1322C59.5375 46.0536 59.7099 45.9384 59.855 45.7931L64.5425 41.1056C64.7609 40.8869 64.9096 40.6084 64.9698 40.3053C65.0299 40.0021 64.9988 39.6879 64.8804 39.4025Z" fill="#FCD34D"/>
</g>
<defs>
<clipPath id="clip0_167_690">
<rect width="50" height="50" fill="white" transform="translate(15 15)"/>
</clipPath>
</defs>
</svg>
