<svg width="16" height="16" viewBox="0 0 16 16" fill="none" xmlns="http://www.w3.org/2000/svg">
<rect width="16" height="16" rx="8" fill="#BAE6FD"/>
<path d="M11.125 4.25H10.1875V3.9375C10.1875 3.85462 10.1546 3.77513 10.096 3.71653C10.0374 3.65792 9.95788 3.625 9.875 3.625C9.79212 3.625 9.71263 3.65792 9.65403 3.71653C9.59542 3.77513 9.5625 3.85462 9.5625 3.9375V4.25H6.4375V3.9375C6.4375 3.85462 6.40458 3.77513 6.34597 3.71653C6.28737 3.65792 6.20788 3.625 6.125 3.625C6.04212 3.625 5.96263 3.65792 5.90403 3.71653C5.84542 3.77513 5.8125 3.85462 5.8125 3.9375V4.25H4.875C4.70924 4.25 4.55027 4.31585 4.43306 4.43306C4.31585 4.55027 4.25 4.70924 4.25 4.875V11.125C4.25 11.2908 4.31585 11.4497 4.43306 11.5669C4.55027 11.6842 4.70924 11.75 4.875 11.75H11.125C11.2908 11.75 11.4497 11.6842 11.5669 11.5669C11.6842 11.4497 11.75 11.2908 11.75 11.125V4.875C11.75 4.70924 11.6842 4.55027 11.5669 4.43306C11.4497 4.31585 11.2908 4.25 11.125 4.25ZM9.62734 8.22109L7.75234 10.0961C7.72332 10.1251 7.68886 10.1482 7.65092 10.1639C7.61298 10.1797 7.57232 10.1877 7.53125 10.1877C7.49018 10.1877 7.44952 10.1797 7.41158 10.1639C7.37364 10.1482 7.33918 10.1251 7.31016 10.0961L6.37266 9.15859C6.31402 9.09996 6.28108 9.02043 6.28108 8.9375C6.28108 8.85457 6.31402 8.77504 6.37266 8.71641C6.43129 8.65777 6.51082 8.62483 6.59375 8.62483C6.67668 8.62483 6.75621 8.65777 6.81484 8.71641L7.53125 9.4332L9.18516 7.77891C9.21419 7.74987 9.24866 7.72684 9.28659 7.71113C9.32453 7.69541 9.36519 7.68733 9.40625 7.68733C9.44731 7.68733 9.48797 7.69541 9.52591 7.71113C9.56384 7.72684 9.59831 7.74987 9.62734 7.77891C9.65638 7.80794 9.67941 7.84241 9.69512 7.88034C9.71084 7.91828 9.71892 7.95894 9.71892 8C9.71892 8.04106 9.71084 8.08172 9.69512 8.11966C9.67941 8.15759 9.65638 8.19206 9.62734 8.22109ZM4.875 6.125V4.875H5.8125V5.1875C5.8125 5.27038 5.84542 5.34987 5.90403 5.40847C5.96263 5.46708 6.04212 5.5 6.125 5.5C6.20788 5.5 6.28737 5.46708 6.34597 5.40847C6.40458 5.34987 6.4375 5.27038 6.4375 5.1875V4.875H9.5625V5.1875C9.5625 5.27038 9.59542 5.34987 9.65403 5.40847C9.71263 5.46708 9.79212 5.5 9.875 5.5C9.95788 5.5 10.0374 5.46708 10.096 5.40847C10.1546 5.34987 10.1875 5.27038 10.1875 5.1875V4.875H11.125V6.125H4.875Z" fill="#0284C7"/>
</svg>
