<svg width="16" height="16" viewBox="0 0 16 16" fill="none" xmlns="http://www.w3.org/2000/svg">
<rect width="16" height="16" rx="8" fill="#BAE6FD"/>
<g opacity="0.6">
<path d="M8.3125 6.12501V7.82306L9.72344 8.66954C9.79451 8.71223 9.84571 8.78139 9.86578 8.86183C9.88586 8.94226 9.87315 9.02738 9.83047 9.09845C9.78779 9.16952 9.71862 9.22072 9.63818 9.24079C9.55775 9.26087 9.47263 9.24816 9.40156 9.20548L7.83906 8.26798C7.79282 8.2402 7.75455 8.20091 7.72799 8.15395C7.70143 8.107 7.68748 8.05396 7.6875 8.00001V6.12501C7.6875 6.04213 7.72042 5.96265 7.77903 5.90404C7.83763 5.84544 7.91712 5.81251 8 5.81251C8.08288 5.81251 8.16237 5.84544 8.22097 5.90404C8.27958 5.96265 8.3125 6.04213 8.3125 6.12501ZM8 4.25001C7.50703 4.24878 7.01871 4.34534 6.5633 4.53408C6.1079 4.72283 5.69444 5.00002 5.34688 5.34962C5.06289 5.63712 4.81055 5.91368 4.5625 6.20314V5.50001C4.5625 5.41713 4.52958 5.33765 4.47097 5.27904C4.41237 5.22044 4.33288 5.18751 4.25 5.18751C4.16712 5.18751 4.08763 5.22044 4.02903 5.27904C3.97042 5.33765 3.9375 5.41713 3.9375 5.50001V7.06251C3.9375 7.14539 3.97042 7.22488 4.02903 7.28348C4.08763 7.34209 4.16712 7.37501 4.25 7.37501H5.8125C5.89538 7.37501 5.97487 7.34209 6.03347 7.28348C6.09208 7.22488 6.125 7.14539 6.125 7.06251C6.125 6.97963 6.09208 6.90015 6.03347 6.84154C5.97487 6.78294 5.89538 6.75001 5.8125 6.75001H4.91406C5.19336 6.42111 5.47148 6.11134 5.78867 5.79025C6.22299 5.35593 6.77567 5.05923 7.37764 4.93723C7.97962 4.81523 8.60421 4.87332 9.17335 5.10426C9.7425 5.3352 10.231 5.72875 10.5777 6.23572C10.9245 6.74269 11.1142 7.34061 11.123 7.95476C11.1319 8.56891 10.9596 9.17206 10.6277 9.68885C10.2957 10.2056 9.81885 10.6131 9.25662 10.8605C8.69439 11.1078 8.07175 11.1839 7.4665 11.0794C6.86124 10.9748 6.30022 10.6942 5.85352 10.2727C5.82366 10.2445 5.78854 10.2224 5.75016 10.2078C5.71178 10.1931 5.67089 10.1862 5.62983 10.1873C5.58877 10.1885 5.54834 10.1977 5.51085 10.2145C5.47336 10.2313 5.43954 10.2553 5.41133 10.2852C5.38311 10.315 5.36106 10.3501 5.34642 10.3885C5.33178 10.4269 5.32484 10.4678 5.326 10.5089C5.32716 10.5499 5.3364 10.5903 5.35318 10.6278C5.36997 10.6653 5.39397 10.6991 5.42383 10.7274C5.86893 11.1474 6.41006 11.4521 7 11.6149C7.58994 11.7777 8.21076 11.7936 8.80828 11.6613C9.4058 11.529 9.96186 11.2525 10.4279 10.8558C10.894 10.4592 11.2559 9.95454 11.4821 9.38588C11.7082 8.81721 11.7918 8.20183 11.7255 7.59344C11.6591 6.98506 11.4449 6.40216 11.1014 5.89561C10.758 5.38906 10.2958 4.97427 9.7552 4.68743C9.21459 4.40058 8.61199 4.25041 8 4.25001Z" fill="#0284C7"/>
</g>
</svg>
