<svg width="16" height="16" viewBox="0 0 16 16" fill="none" xmlns="http://www.w3.org/2000/svg">
<rect width="16" height="16" rx="8" fill="#BAE6FD"/>
<path d="M10.5 3.9375H6.75C6.58424 3.9375 6.42527 4.00335 6.30806 4.12056C6.19085 4.23777 6.125 4.39674 6.125 4.5625V5.1875H5.5C5.33424 5.1875 5.17527 5.25335 5.05806 5.37056C4.94085 5.48777 4.875 5.64674 4.875 5.8125V11.75C4.875 11.8074 4.89082 11.8637 4.92072 11.9127C4.95062 11.9618 4.99345 12.0016 5.0445 12.0279C5.09556 12.0541 5.15287 12.0658 5.21013 12.0617C5.2674 12.0575 5.32242 12.0377 5.36914 12.0043L7.375 10.5715L9.38125 12.0043C9.42797 12.0376 9.48295 12.0573 9.54016 12.0614C9.59736 12.0655 9.6546 12.0538 9.70559 12.0275C9.75657 12.0013 9.79935 11.9615 9.82924 11.9125C9.85912 11.8636 9.87495 11.8074 9.875 11.75V10.2145L10.6309 10.7543C10.6776 10.7877 10.7326 10.8075 10.7899 10.8117C10.8471 10.8158 10.9044 10.8041 10.9555 10.7779C11.0066 10.7516 11.0494 10.7118 11.0793 10.6627C11.1092 10.6137 11.125 10.5574 11.125 10.5V4.5625C11.125 4.39674 11.0592 4.23777 10.9419 4.12056C10.8247 4.00335 10.6658 3.9375 10.5 3.9375ZM10.5 9.89297L9.875 9.44531V5.8125C9.875 5.64674 9.80915 5.48777 9.69194 5.37056C9.57473 5.25335 9.41576 5.1875 9.25 5.1875H6.75V4.5625H10.5V9.89297Z" fill="#0284C7"/>
</svg>
