<svg width="43" height="42" viewBox="0 0 43 42" fill="none" xmlns="http://www.w3.org/2000/svg">
<rect x="0.5" width="42" height="42" rx="21" fill="#FBCFE8"/>
<path d="M31.2501 12C31.2501 11.8011 31.1711 11.6103 31.0304 11.4697C30.8898 11.329 30.699 11.25 30.5001 11.25C26.3676 11.25 22.1273 15.9103 19.7723 18.9966C18.9312 18.739 18.0415 18.6822 17.1745 18.8309C16.3075 18.9795 15.4875 19.3294 14.7803 19.8525C14.0731 20.3755 13.4984 21.0571 13.1024 21.8426C12.7064 22.628 12.5001 23.4954 12.5001 24.375C12.5001 27.27 10.6682 28.5684 10.581 28.6284C10.448 28.7183 10.3473 28.8484 10.2937 28.9998C10.2401 29.1511 10.2366 29.3156 10.2835 29.4692C10.3304 29.6227 10.4253 29.7571 10.5543 29.8527C10.6833 29.9482 10.8395 29.9999 11.0001 30H18.1251C19.0047 30 19.8721 29.7937 20.6575 29.3977C21.4429 29.0017 22.1245 28.427 22.6476 27.7198C23.1706 27.0126 23.5205 26.1926 23.6692 25.3256C23.8178 24.4586 23.7611 23.5689 23.5035 22.7278C26.5907 20.3728 31.2501 16.1325 31.2501 12ZM21.1645 19.6453C21.4857 19.2291 21.801 18.8369 22.1104 18.4688C22.8676 18.9804 23.5197 19.6324 24.0313 20.3897C23.6626 20.6984 23.2704 21.0138 22.8548 21.3356C22.4177 20.6586 21.8415 20.0824 21.1645 19.6453ZM25.1676 19.3941C24.6014 18.5951 23.904 17.8978 23.1051 17.3316C26.0845 14.0944 28.3316 13.1128 29.6582 12.84C29.391 14.1675 28.4048 16.4147 25.1676 19.3941Z" fill="#EC4899"/>
</svg>
