<svg width="718" height="193" viewBox="0 0 718 193" fill="none" xmlns="http://www.w3.org/2000/svg">
<path fill-rule="evenodd" clip-rule="evenodd" d="M-88 0L-54.4167 12.09C-20.8333 24.18 46.3333 48.36 113.5 44.33C180.667 40.3 247.833 8.06 315 28.21C382.167 48.36 449.333 120.9 516.5 141.05C583.667 161.2 650.833 128.96 684.417 112.84L718 96.72V193.44H684.417C650.833 193.44 583.667 193.44 516.5 193.44C449.333 193.44 382.167 193.44 315 193.44C247.833 193.44 180.667 193.44 113.5 193.44C46.3333 193.44 -20.8333 193.44 -54.4167 193.44H-88V0Z" fill="#7DD3FC"/>
</svg>
