<svg width="720" height="194" viewBox="0 0 720 194" fill="none" xmlns="http://www.w3.org/2000/svg">
<path fill-rule="evenodd" clip-rule="evenodd" d="M720 193.44L686.417 181.35C652.833 169.26 585.667 145.08 518.5 149.11C451.333 153.14 384.167 185.38 317 165.23C249.833 145.08 182.667 72.5399 115.5 52.39C48.3333 32.24 -18.8334 64.4799 -52.4167 80.5999L-86 96.7199V-4.57764e-05H-52.4167C-18.8334 -4.57764e-05 48.3333 -4.57764e-05 115.5 -4.57764e-05C182.667 -4.57764e-05 249.833 -4.57764e-05 317 -4.57764e-05C384.167 -4.57764e-05 451.333 -4.57764e-05 518.5 -4.57764e-05C585.667 -4.57764e-05 652.833 -4.57764e-05 686.417 -4.57764e-05H720V193.44Z" fill="#7DD3FC"/>
</svg>
