<svg width="154" height="80" viewBox="0 0 154 80" fill="none" xmlns="http://www.w3.org/2000/svg">
<path d="M37.6796 68.9215L42.5077 55.8669C42.7264 55.2887 43.0624 54.8122 43.5155 54.4372C43.9686 54.0622 44.4882 53.8747 45.0741 53.8747C45.6913 53.8747 46.2186 54.0583 46.6561 54.4255C47.0936 54.7848 47.4218 55.2653 47.6405 55.8669L52.3514 68.9215C52.4764 69.2653 52.5389 69.5622 52.5389 69.8122C52.5389 70.2731 52.3749 70.652 52.0468 70.9489C51.7264 71.2458 51.3397 71.3942 50.8866 71.3942C49.9882 71.3942 49.4022 70.9801 49.1288 70.152L48.4139 67.8903H41.746L41.0194 70.1286C40.7538 70.9723 40.1796 71.3942 39.2968 71.3942C38.8124 71.3942 38.3944 71.234 38.0428 70.9137C37.6913 70.5934 37.5155 70.195 37.5155 69.7184C37.5155 69.4606 37.5702 69.195 37.6796 68.9215ZM45.0507 57.6247L42.7772 64.5856H47.3358L45.0975 57.6247H45.0507ZM66.3643 60.3786C66.3643 60.777 66.2393 61.1559 65.9893 61.5153C65.7393 61.8669 65.4228 62.0426 65.04 62.0426C64.7666 62.0426 64.3408 61.9294 63.7627 61.7028C63.1846 61.4762 62.7002 61.363 62.3096 61.363C61.6846 61.363 61.1455 61.5387 60.6924 61.8903C60.2393 62.234 59.9111 62.6676 59.708 63.1911C59.5049 63.7067 59.4033 64.2731 59.4033 64.8903C59.4033 65.4762 59.5127 66.0309 59.7314 66.5544C59.9502 67.07 60.2861 67.5036 60.7393 67.8551C61.1924 68.1989 61.7158 68.3708 62.3096 68.3708C62.6377 68.3708 63.1221 68.2536 63.7627 68.0192C64.4033 67.777 64.7744 67.6559 64.876 67.6559C65.2822 67.6559 65.6299 67.8044 65.9189 68.1012C66.2158 68.3981 66.3643 68.7536 66.3643 69.1676C66.3643 69.5817 66.2041 69.9528 65.8838 70.2809C65.5713 70.609 65.1768 70.859 64.7002 71.0309C64.2314 71.2028 63.7744 71.3317 63.3291 71.4176C62.8838 71.5036 62.4853 71.5465 62.1338 71.5465C60.9307 71.5465 59.8525 71.2419 58.8994 70.6325C57.9463 70.0231 57.2158 69.2145 56.708 68.2067C56.2002 67.1989 55.9463 66.0934 55.9463 64.8903C55.9463 64.0231 56.0986 63.1833 56.4033 62.3708C56.7158 61.5583 57.1377 60.8473 57.6689 60.238C58.2002 59.6208 58.8525 59.1286 59.626 58.7614C60.4072 58.3864 61.2432 58.1989 62.1338 58.1989C62.5244 58.1989 62.9424 58.238 63.3877 58.3161C63.833 58.3864 64.2861 58.4997 64.7471 58.6559C65.2158 58.8122 65.6025 59.0426 65.9072 59.3473C66.2119 59.6442 66.3643 59.988 66.3643 60.3786ZM82.2521 60.6012V69.1442C82.2521 69.3864 82.2482 69.5817 82.2403 69.7301C82.2325 69.8786 82.1974 70.0739 82.1349 70.3161C82.0802 70.5505 81.9982 70.738 81.8888 70.8786C81.7794 71.0114 81.6114 71.1325 81.3849 71.2419C81.1661 71.3434 80.9005 71.3942 80.588 71.3942C80.1114 71.3942 79.7482 71.2731 79.4982 71.0309C79.2482 70.7887 79.0607 70.4215 78.9357 69.9294C78.0216 71.0075 76.9239 71.5465 75.6427 71.5465C74.0099 71.5465 72.6505 70.9215 71.5646 69.6715C70.4786 68.4137 69.9357 66.82 69.9357 64.8903C69.9357 63.6481 70.1896 62.5153 70.6974 61.4919C71.2052 60.4606 71.8966 59.6559 72.7716 59.0778C73.6466 58.4919 74.6036 58.1989 75.6427 58.1989C76.3068 58.1989 76.9278 58.3317 77.506 58.5973C78.0841 58.863 78.5607 59.2575 78.9357 59.7809C78.9825 59.359 79.1622 59.0153 79.4747 58.7497C79.795 58.4762 80.1661 58.3395 80.588 58.3395C80.8146 58.3395 81.0177 58.3669 81.1974 58.4215C81.3771 58.4762 81.5255 58.5465 81.6427 58.6325C81.7599 58.7106 81.8575 58.82 81.9357 58.9606C82.0138 59.0934 82.0724 59.2184 82.1114 59.3356C82.1583 59.445 82.1896 59.5895 82.2052 59.7692C82.2286 59.9489 82.2403 60.0895 82.2403 60.1911C82.2482 60.2926 82.2521 60.4294 82.2521 60.6012ZM73.3927 64.8903C73.3927 65.4684 73.4864 66.0153 73.6739 66.5309C73.8614 67.0387 74.1661 67.4723 74.588 67.8317C75.0177 68.1911 75.5294 68.3708 76.1232 68.3708C76.6935 68.3708 77.1857 68.195 77.5997 67.8434C78.0216 67.484 78.3263 67.0465 78.5138 66.5309C78.7013 66.0153 78.795 65.4684 78.795 64.8903C78.795 64.3122 78.7013 63.7653 78.5138 63.2497C78.3341 62.7262 78.0333 62.2809 77.6114 61.9137C77.1974 61.5465 76.7013 61.363 76.1232 61.363C75.5216 61.363 75.006 61.5465 74.5763 61.9137C74.1544 62.2809 73.8497 62.7223 73.6622 63.238C73.4825 63.7536 73.3927 64.3044 73.3927 64.8903ZM98.9133 54.695V69.4723C98.9133 70.0426 98.7493 70.5075 98.4211 70.8669C98.1008 71.2184 97.6868 71.3942 97.1789 71.3942C96.2493 71.3942 95.675 70.9137 95.4563 69.9528C95.1516 70.4528 94.7024 70.8434 94.1086 71.1247C93.5149 71.4059 92.9055 71.5465 92.2805 71.5465C91.4368 71.5465 90.6516 71.363 89.925 70.9958C89.2063 70.6208 88.6047 70.1286 88.1203 69.5192C87.6438 68.9098 87.2688 68.2184 86.9953 67.445C86.7297 66.6637 86.5969 65.863 86.5969 65.0426C86.5969 64.1833 86.7141 63.3551 86.9485 62.5583C87.1907 61.7536 87.5344 61.0231 87.9797 60.3669C88.425 59.7106 89.011 59.1872 89.7375 58.7965C90.4641 58.3981 91.2727 58.1989 92.1633 58.1989C93.4446 58.1989 94.5422 58.5973 95.4563 59.3942V54.695C95.4563 54.1247 95.6164 53.6637 95.9368 53.3122C96.2571 52.9528 96.6711 52.7731 97.1789 52.7731C97.6868 52.7731 98.1008 52.9528 98.4211 53.3122C98.7493 53.6637 98.9133 54.1247 98.9133 54.695ZM95.4563 64.7731C95.4563 64.1872 95.3625 63.6442 95.175 63.1442C94.9875 62.6442 94.6789 62.2223 94.2493 61.8786C93.8274 61.5348 93.3235 61.363 92.7375 61.363C92.1672 61.363 91.6711 61.5465 91.2493 61.9137C90.8274 62.2809 90.5227 62.7262 90.3352 63.2497C90.1477 63.7731 90.0539 64.32 90.0539 64.8903C90.0539 65.4528 90.1477 65.9919 90.3352 66.5075C90.5227 67.0231 90.8274 67.4645 91.2493 67.8317C91.6711 68.1911 92.1672 68.3708 92.7375 68.3708C93.1907 68.3708 93.5969 68.2653 93.9563 68.0544C94.3157 67.8356 94.6008 67.5505 94.8118 67.1989C95.0227 66.8473 95.1828 66.4645 95.2922 66.0505C95.4016 65.6364 95.4563 65.2106 95.4563 64.7731ZM113.911 66.027H106.551C106.661 66.8395 107.016 67.4606 107.618 67.8903C108.227 68.3122 108.957 68.5231 109.809 68.5231C110.207 68.5231 110.618 68.4528 111.039 68.3122C111.461 68.1637 111.813 68.0036 112.094 67.8317C112.375 67.652 112.668 67.4919 112.973 67.3512C113.278 67.2028 113.528 67.1286 113.723 67.1286C114.09 67.1286 114.418 67.2848 114.707 67.5973C114.996 67.902 115.141 68.2419 115.141 68.6169C115.141 69.0934 114.848 69.5622 114.262 70.0231C113.684 70.484 112.953 70.8551 112.071 71.1364C111.196 71.4098 110.336 71.5465 109.493 71.5465C107.571 71.5465 106.008 70.9215 104.805 69.6715C103.61 68.4137 103.012 66.82 103.012 64.8903C103.012 63.7184 103.27 62.6247 103.786 61.609C104.309 60.5934 105.047 59.7731 106 59.1481C106.961 58.5153 108.032 58.1989 109.211 58.1989C110.11 58.1989 110.953 58.3903 111.743 58.7731C112.539 59.1559 113.2 59.652 113.723 60.2614C114.254 60.8708 114.668 61.5465 114.965 62.2887C115.27 63.0231 115.422 63.7536 115.422 64.4801C115.422 65.0036 115.301 65.3942 115.059 65.652C114.817 65.902 114.434 66.027 113.911 66.027ZM106.469 63.7184H111.965C111.871 62.9372 111.582 62.3044 111.098 61.82C110.621 61.3278 109.993 61.0817 109.211 61.0817C108.461 61.0817 107.836 61.3317 107.336 61.8317C106.844 62.3317 106.555 62.9606 106.469 63.7184ZM119.533 69.4723V60.2614C119.533 59.6911 119.693 59.2301 120.013 58.8786C120.333 58.5192 120.748 58.3395 121.255 58.3395C121.701 58.3395 122.06 58.4528 122.333 58.6794C122.615 58.9059 122.787 59.2262 122.849 59.6403C123.74 58.6794 124.81 58.1989 126.06 58.1989C127.513 58.1989 128.705 58.7809 129.634 59.945C130.103 59.4137 130.673 58.9919 131.345 58.6794C132.025 58.359 132.669 58.1989 133.279 58.1989C134.716 58.1989 135.865 58.6051 136.724 59.4176C137.583 60.2223 138.013 61.3669 138.013 62.8512V69.4723C138.013 70.0426 137.849 70.5075 137.521 70.8669C137.201 71.2184 136.787 71.3942 136.279 71.3942C135.771 71.3942 135.357 71.2184 135.037 70.8669C134.716 70.5075 134.556 70.0426 134.556 69.4723V63.4489C134.556 62.7458 134.373 62.1755 134.005 61.738C133.646 61.3005 133.158 61.0817 132.541 61.0817C131.908 61.0817 131.408 61.3005 131.041 61.738C130.681 62.1676 130.501 62.738 130.501 63.4489V69.4723C130.501 70.0426 130.337 70.5075 130.009 70.8669C129.689 71.2184 129.275 71.3942 128.767 71.3942C128.259 71.3942 127.845 71.2184 127.525 70.8669C127.205 70.5075 127.044 70.0426 127.044 69.4723V63.4489C127.044 62.7458 126.861 62.1755 126.494 61.738C126.134 61.3005 125.646 61.0817 125.029 61.0817C124.349 61.0817 123.837 61.2965 123.494 61.7262C123.158 62.1481 122.99 62.7223 122.99 63.4489V69.4723C122.99 70.0426 122.826 70.5075 122.498 70.8669C122.177 71.2184 121.763 71.3942 121.255 71.3942C120.748 71.3942 120.333 71.2184 120.013 70.8669C119.693 70.5075 119.533 70.0426 119.533 69.4723ZM145.803 70.2458L141.983 60.7184C141.874 60.4059 141.819 60.109 141.819 59.8278C141.819 59.4137 141.995 59.0622 142.346 58.7731C142.698 58.484 143.065 58.3395 143.448 58.3395C144.292 58.3395 144.87 58.7497 145.182 59.57L147.549 66.0739L150.092 59.57C150.405 58.7497 150.983 58.3395 151.827 58.3395C152.21 58.3395 152.577 58.484 152.928 58.7731C153.28 59.0622 153.456 59.4137 153.456 59.8278C153.456 60.1715 153.401 60.4684 153.292 60.7184L147.503 75.1208C147.128 76.027 146.585 76.4801 145.874 76.4801C145.319 76.4801 144.878 76.3317 144.549 76.0348C144.229 75.738 144.069 75.3903 144.069 74.9919C144.069 74.7184 144.143 74.3825 144.292 73.984L145.803 70.2458Z" fill="#FFFFFF"/>
<path d="M28.4296 15.4958C29.0389 15.4958 29.7108 15.5426 30.4452 15.6364C31.1952 15.7145 32.0155 15.8708 32.9061 16.1051C33.7968 16.3395 34.5936 16.6286 35.2968 16.9723C36.0155 17.3161 36.6171 17.777 37.1014 18.3551C37.5858 18.9333 37.828 19.5817 37.828 20.3005C37.828 21.2692 37.5311 22.1051 36.9374 22.8083C36.3436 23.5114 35.5702 23.863 34.6171 23.863C34.0389 23.863 33.0858 23.6208 31.7577 23.1364C30.4452 22.652 29.2733 22.4098 28.2421 22.4098C27.1483 22.4098 26.2186 22.6911 25.453 23.2536C24.6874 23.8005 24.3046 24.5583 24.3046 25.527C24.3046 26.0426 24.4843 26.5036 24.8436 26.9098C25.2186 27.3005 25.7108 27.6286 26.3202 27.8942C26.9452 28.1598 27.6561 28.4098 28.453 28.6442C29.2655 28.8786 30.1093 29.1364 30.9843 29.4176C31.8749 29.6833 32.7577 29.988 33.6327 30.3317C34.5233 30.6598 35.3671 31.0895 36.1639 31.6208C36.9764 32.152 37.6874 32.7692 38.2968 33.4723C38.9218 34.1598 39.4139 35.0348 39.7733 36.0973C40.1483 37.1598 40.3358 38.3551 40.3358 39.6833C40.3358 41.902 39.7655 43.8708 38.6249 45.5895C37.4999 47.3083 36.0077 48.613 34.1483 49.5036C32.3046 50.3942 30.2733 50.8395 28.0546 50.8395C27.3671 50.8395 26.6483 50.8083 25.8983 50.7458C25.1483 50.6833 24.3124 50.5817 23.3905 50.4411C22.4686 50.3161 21.6093 50.1208 20.8124 49.8551C20.0155 49.5739 19.2733 49.2458 18.5858 48.8708C17.9139 48.4801 17.3749 47.9958 16.9686 47.4176C16.578 46.8239 16.3827 46.1676 16.3827 45.4489C16.3827 44.4801 16.6718 43.6755 17.2499 43.0348C17.8436 42.3786 18.6249 42.0505 19.5936 42.0505C20.2655 42.0505 21.4999 42.363 23.2968 42.988C25.0936 43.613 26.5468 43.9255 27.6561 43.9255C29.1874 43.9255 30.3827 43.5426 31.2421 42.777C32.1171 42.0114 32.5546 41.0192 32.5546 39.8005C32.5546 39.2067 32.3671 38.6833 31.9921 38.2301C31.6327 37.777 31.1405 37.402 30.5155 37.1051C29.9061 36.8083 29.1952 36.5348 28.3827 36.2848C27.5858 36.0348 26.7421 35.7848 25.8514 35.5348C24.9764 35.2848 24.0936 35.0114 23.203 34.7145C22.328 34.402 21.4843 34.0114 20.6718 33.5426C19.8749 33.0739 19.1639 32.5348 18.5389 31.9255C17.9296 31.3161 17.4374 30.5426 17.0624 29.6051C16.703 28.652 16.5233 27.5817 16.5233 26.3942C16.5233 24.2223 17.0702 22.3005 18.1639 20.6286C19.2733 18.9411 20.7264 17.6676 22.5233 16.8083C24.3202 15.9333 26.2889 15.4958 28.4296 15.4958ZM49.8496 46.8083L43.7558 20.5817C43.6152 19.9567 43.5449 19.4176 43.5449 18.9645C43.5449 18.1364 43.8652 17.402 44.5058 16.7614C45.1464 16.1208 45.9668 15.8005 46.9668 15.8005C49.0761 15.8005 50.3574 16.9489 50.8105 19.2458L54.8886 39.6364H54.9824L61.2168 18.613C61.4824 17.738 61.9511 17.0505 62.623 16.5505C63.2949 16.0505 64.0761 15.8005 64.9668 15.8005C65.8574 15.8005 66.6386 16.0505 67.3105 16.5505C67.9824 17.0505 68.4511 17.738 68.7168 18.613L74.9511 39.6364H75.0449L79.123 19.2458C79.5761 16.9489 80.8574 15.8005 82.9668 15.8005C83.9668 15.8005 84.7793 16.1208 85.4043 16.7614C86.0449 17.402 86.3652 18.1364 86.3652 18.9645C86.3652 19.4801 86.3027 20.0192 86.1777 20.5817L80.0839 46.8083C79.8339 47.8864 79.2949 48.777 78.4668 49.4801C77.6543 50.1833 76.6074 50.5348 75.3261 50.5348C74.1855 50.5348 73.1777 50.2067 72.3027 49.5505C71.4433 48.8942 70.8652 48.0583 70.5683 47.0426L65.0136 28.5036H64.9199L59.3418 47.0426C59.0449 48.0583 58.4589 48.8942 57.5839 49.5505C56.7246 50.2067 55.7246 50.5348 54.5839 50.5348C53.3027 50.5348 52.2558 50.1833 51.4433 49.4801C50.6308 48.777 50.0996 47.8864 49.8496 46.8083ZM86.4336 45.5895L96.0899 19.4801C96.5274 18.3239 97.1992 17.3708 98.1055 16.6208C99.0117 15.8708 100.051 15.4958 101.223 15.4958C102.457 15.4958 103.512 15.863 104.387 16.5973C105.262 17.3161 105.918 18.277 106.355 19.4801L115.777 45.5895C116.027 46.277 116.152 46.8708 116.152 47.3708C116.152 48.2926 115.824 49.0505 115.168 49.6442C114.527 50.238 113.754 50.5348 112.848 50.5348C111.051 50.5348 109.879 49.7067 109.332 48.0505L107.902 43.527H94.5664L93.1133 48.0036C92.5821 49.6911 91.4336 50.5348 89.668 50.5348C88.6992 50.5348 87.8633 50.2145 87.1602 49.5739C86.4571 48.9333 86.1055 48.1364 86.1055 47.1833C86.1055 46.6676 86.2149 46.1364 86.4336 45.5895ZM101.176 22.9958L96.6289 36.9176H105.746L101.27 22.9958H101.176ZM120.322 46.8083V19.8317C120.322 18.6911 120.651 17.7848 121.307 17.113C121.979 16.4255 122.901 16.0817 124.072 16.0817H132.557C136.119 16.0817 139.057 17.1442 141.369 19.2692C143.697 21.3786 144.861 24.1364 144.861 27.5426C144.861 29.2458 144.541 30.8239 143.901 32.277C143.276 33.7145 142.416 34.9176 141.322 35.8864C140.244 36.8395 138.971 37.5895 137.502 38.1364C136.049 38.6676 134.502 38.9333 132.861 38.9333H127.518V46.8083C127.518 47.9801 127.182 48.8942 126.51 49.5505C125.854 50.2067 124.994 50.5348 123.932 50.5348C122.869 50.5348 122.002 50.2067 121.33 49.5505C120.658 48.8942 120.322 47.9801 120.322 46.8083ZM127.518 22.4098V32.5817H132.416C133.901 32.5817 135.096 32.1051 136.002 31.152C136.908 30.1833 137.361 28.9645 137.361 27.4958C137.361 26.027 136.908 24.8161 136.002 23.863C135.096 22.8942 133.901 22.4098 132.416 22.4098H127.518Z" fill="#FFFFFF"/>
<path d="M14.5578 23.9768C15.7512 15.0563 24.4936 12.7146 29.4494 13.3776L26.0969 7.42882L19.5749 14.548L10.2614 16.3531L14.5578 23.9768Z" fill="##FFFFFF" stroke="#FFFFFF"/>
<path d="M14.4197 5.4006L6.8006 14.2859L18.1019 11.9345L25.9666 3.48472L14.4197 5.4006Z" fill="#FFFFFF"/>
<path d="M6.8006 14.2859L14.4197 5.4006L25.9666 3.48472L18.1019 11.9345L6.8006 14.2859ZM6.8006 14.2859L6.73372 24.6491M6.73372 24.6491L6.26797 24.6491L6.71419 25.2536L7.17379 24.6491L6.73372 24.6491Z" stroke="#FFFFFF"/>
</svg>
